<svg width="3700" height="2298" viewBox="0 0 3700 2298" fill="none" xmlns="http://www.w3.org/2000/svg">
<mask id="mask0_7_23526" style="mask-type:luminance" maskUnits="userSpaceOnUse" x="3046" y="1121" width="31" height="27">
<path d="M3077 1121.5H3046.3V1147.39H3077V1121.5Z" fill="white"/>
</mask>
<g mask="url(#mask0_7_23526)">
<mask id="mask1_7_23526" style="mask-type:luminance" maskUnits="userSpaceOnUse" x="3046" y="1121" width="31" height="27">
<path d="M3077 1121.5H3046.3V1147.39H3077V1121.5Z" fill="white"/>
</mask>
<g mask="url(#mask1_7_23526)">
<path d="M3077.1 1125.71C3077.1 1126.86 3076.5 1127.93 3075.4 1128.7C3075 1129.01 3074.5 1129.31 3073.9 1129.47H3073.8C3071.4 1130.31 3069.7 1132.22 3069.7 1134.37C3069.7 1135.75 3070.4 1137.05 3071.5 1138.05L3071.6 1138.12C3071.8 1138.28 3071.9 1138.43 3072.1 1138.58C3073 1139.5 3073.5 1140.65 3073.5 1141.88C3073.5 1144.94 3070.3 1147.39 3066.3 1147.39C3064.4 1147.39 3062.6 1146.86 3061.4 1145.86C3061.2 1145.71 3061.1 1145.63 3060.9 1145.48C3060.1 1144.79 3059 1144.33 3057.7 1144.33C3056.2 1144.33 3054.8 1144.94 3054.1 1145.86C3054.1 1145.86 3054.1 1145.86 3054.1 1145.94C3053.9 1146.24 3053.5 1146.47 3053.2 1146.7C3052.5 1147.08 3051.7 1147.31 3050.7 1147.31C3048.5 1147.31 3046.7 1145.94 3046.7 1144.25C3046.7 1142.72 3048.2 1141.42 3050.1 1141.19C3050.3 1141.19 3050.5 1141.19 3050.7 1141.19C3051.6 1141.19 3052.4 1141.42 3053 1141.72C3053.7 1142.11 3054.6 1142.34 3055.5 1142.34C3057.4 1142.34 3059 1141.42 3059.6 1140.11V1140.04C3059.7 1139.88 3059.8 1139.73 3059.8 1139.58C3060.5 1138.35 3061.7 1137.43 3063.2 1136.82C3063.4 1136.74 3063.5 1136.67 3063.7 1136.67C3066.5 1135.82 3068.4 1133.76 3068.4 1131.31C3068.4 1130.08 3067.9 1129.01 3067.1 1128.09L3067 1127.93C3066.7 1127.63 3066.5 1127.32 3066.4 1126.94C3066.2 1126.56 3066.1 1126.1 3066.1 1125.64C3066.1 1123.34 3068.5 1121.5 3071.5 1121.5C3074.6 1121.5 3077.1 1123.42 3077.1 1125.71Z" fill="white"/>
</g>
<mask id="mask2_7_23526" style="mask-type:luminance" maskUnits="userSpaceOnUse" x="3046" y="1121" width="31" height="27">
<path d="M3077 1121.5H3046.3V1147.39H3077V1121.5Z" fill="white"/>
</mask>
<g mask="url(#mask2_7_23526)">
<path d="M3052.2 1127.48C3055.4 1127.48 3058 1129.47 3058 1131.92C3058 1134.37 3055.4 1136.36 3052.2 1136.36C3049 1136.36 3046.4 1134.37 3046.4 1131.92C3046.3 1129.47 3048.9 1127.48 3052.2 1127.48Z" fill="white"/>
</g>
</g>
<mask id="mask3_7_23526" style="mask-type:luminance" maskUnits="userSpaceOnUse" x="882" y="1394" width="38" height="33">
<path d="M919.7 1394.81H882.5V1426.14H919.7V1394.81Z" fill="white"/>
</mask>
<g mask="url(#mask3_7_23526)">
<mask id="mask4_7_23526" style="mask-type:luminance" maskUnits="userSpaceOnUse" x="882" y="1394" width="38" height="33">
<path d="M919.7 1394.81H882.5V1426.14H919.7V1394.81Z" fill="white"/>
</mask>
<g mask="url(#mask4_7_23526)">
<path d="M919.7 1399.79C919.7 1401.24 918.9 1402.47 917.7 1403.39C917.2 1403.77 916.6 1404.08 915.9 1404.31H915.8C912.9 1405.38 910.9 1407.6 910.9 1410.21C910.9 1411.89 911.7 1413.42 913.1 1414.65L913.2 1414.73C913.4 1414.88 913.6 1415.11 913.8 1415.26C914.9 1416.41 915.5 1417.71 915.5 1419.25C915.5 1422.92 911.6 1425.99 906.7 1425.99C904.4 1425.99 902.3 1425.3 900.7 1424.15C900.5 1423.99 900.3 1423.84 900.1 1423.69C899.2 1422.85 897.8 1422.31 896.2 1422.31C894.4 1422.31 892.7 1423.08 891.8 1424.15C891.8 1424.15 891.8 1424.22 891.7 1424.22C891.4 1424.61 891 1424.91 890.6 1425.14C889.8 1425.6 888.7 1425.91 887.6 1425.91C884.9 1425.91 882.7 1424.22 882.7 1422.16C882.7 1420.32 884.5 1418.71 886.9 1418.48C887.1 1418.48 887.4 1418.4 887.6 1418.4C888.6 1418.4 889.6 1418.63 890.4 1419.09C891.2 1419.55 892.3 1419.78 893.4 1419.78C895.7 1419.78 897.6 1418.63 898.3 1417.1V1417.02C898.4 1416.79 898.5 1416.64 898.6 1416.41C899.4 1414.96 900.9 1413.81 902.7 1413.12C902.9 1413.04 903.1 1412.96 903.3 1412.89C906.7 1411.89 909 1409.36 909 1406.38C909 1404.92 908.4 1403.62 907.5 1402.47L907.3 1402.32C907 1401.93 906.7 1401.55 906.5 1401.09C906.3 1400.63 906.2 1400.1 906.2 1399.56C906.2 1396.8 909.1 1394.5 912.8 1394.5C916.7 1394.81 919.7 1397.03 919.7 1399.79Z" fill="#E31368"/>
</g>
<mask id="mask5_7_23526" style="mask-type:luminance" maskUnits="userSpaceOnUse" x="882" y="1394" width="38" height="33">
<path d="M919.7 1394.81H882.5V1426.14H919.7V1394.81Z" fill="white"/>
</mask>
<g mask="url(#mask5_7_23526)">
<path d="M889.5 1401.93C893.4 1401.93 896.5 1404.38 896.5 1407.3C896.5 1410.28 893.3 1412.66 889.5 1412.66C885.6 1412.66 882.5 1410.21 882.5 1407.3C882.5 1404.38 885.6 1401.93 889.5 1401.93Z" fill="#E31368"/>
</g>
</g>
<path opacity="0.1" d="M3190.37 2229.16L3481.87 2203.36C3695.57 2203.36 3866.87 1287.86 3411.37 954.955C3356.17 914.655 3280.77 914.255 3217.27 888.755C2890.87 757.555 2928.57 434.455 2714.67 210.955C2262.27 -261.445 1654.67 195.455 1157.27 277.155C846.774 328.155 493.474 252.355 239.674 487.255C123.974 594.355 60.3743 749.055 37.7743 905.255C-24.0257 1331.66 -45.3257 1914.06 285.074 2196.36C385.974 2282.56 697.474 2237.66 821.874 2191.56L3190.37 2229.16Z" fill="#84c3b7"/>
<path d="M2370.07 223.655H2170.27V272.555H2370.07V223.655Z" fill="#E31368"/>
<path d="M1809.67 463.555H1609.87V512.455H1809.67V463.555Z" fill="#019288"/>
<path d="M2090.47 463.555H1890.67V512.455H2090.47V463.555Z" fill="#0E8BAD"/>
<path d="M2504.47 380.855H2304.67V429.755H2504.47V380.855Z" fill="#568a75"/>
<path d="M1719.47 674.955H1519.67V723.855H1719.47V674.955Z" fill="#568a75"/>
<path d="M1990.57 674.955H1790.77V723.855H1990.57V674.955Z" fill="#5E12FF"/>
<path d="M2393.17 565.655H2193.37V614.555H2393.17V565.655Z" fill="#0B0755"/>
<path d="M2528.97 664.055H2329.17V712.955H2528.97V664.055Z" fill="#E31368"/>
<path d="M1863.27 830.455H1663.47V879.355H1863.27V830.455Z" fill="#0B0755"/>
<path d="M2416.37 380.855H2412.97V337.755H2265.07V272.555H2268.47V334.355H2416.37V380.855Z" fill="#568a75"/>
<path d="M1726.67 463.555H1723.27V334.355H2266.77V337.755H1726.67V463.555Z" fill="#568a75"/>
<path d="M1992.27 336.055H1988.87V463.555H1992.27V336.055Z" fill="#568a75"/>
<path d="M1621.27 674.955H1617.87V588.455H1708.07V512.455H1711.47V591.755H1621.27V674.955Z" fill="#568a75"/>
<path d="M1892.37 674.955H1888.97V591.755H1709.77V588.455H1892.37V674.955Z" fill="#568a75"/>
<path d="M2285.77 565.655H2282.37V494.555H2090.47V491.155H2285.77V565.655Z" fill="#568a75"/>
<path d="M2448.97 664.055H2445.57V591.755H2393.17V588.455H2448.97V664.055Z" fill="#568a75"/>
<path d="M1892.37 768.855H1608.17V723.855H1611.57V765.455H1888.97V723.855H1892.37V768.855Z" fill="#568a75"/>
<path d="M1765.07 767.155H1761.67V830.455H1765.07V767.155Z" fill="#568a75"/>
<path d="M1658.57 400.655H1498.97V342.755H1658.57V400.655ZM1502.37 397.255H1655.27V346.155H1502.37V397.255Z" fill="#568a75"/>
<path d="M2065.57 656.455H1922.77V605.855H2065.57V656.455ZM1926.17 653.055H2062.17V609.255H1926.17V653.055Z" fill="#568a75"/>
<path d="M1611.57 881.055H1504.07V814.955H1611.57V881.055ZM1507.37 877.655H1608.17V818.355H1507.37V877.655Z" fill="#568a75"/>
<path d="M2151.57 420.355H2031.87V370.055H2151.57V420.355ZM2035.27 416.955H2148.27V373.355H2035.27V416.955Z" fill="#568a75"/>
<path d="M1552.27 375.255H1520.47V380.555H1552.27V375.255Z" fill="#568a75"/>
<path d="M1591.27 375.255H1556.17V380.555H1591.27V375.255Z" fill="#568a75"/>
<path d="M1616.27 375.255H1593.87V380.555H1616.27V375.255Z" fill="#568a75"/>
<path d="M1637.17 375.255H1619.87V380.555H1637.17V375.255Z" fill="#568a75"/>
<path d="M1569.27 362.855H1520.47V368.155H1569.27V362.855Z" fill="#568a75"/>
<path d="M1601.97 362.855H1573.87V368.155H1601.97V362.855Z" fill="#568a75"/>
<path d="M1637.17 362.855H1605.97V368.155H1637.17V362.855Z" fill="#568a75"/>
<path d="M1542.67 851.555H1520.47V856.855H1542.67V851.555Z" fill="#568a75"/>
<path d="M1569.87 851.555H1545.37V856.855H1569.87V851.555Z" fill="#568a75"/>
<path d="M1587.37 851.555H1571.77V856.855H1587.37V851.555Z" fill="#568a75"/>
<path d="M1601.97 851.555H1589.87V856.855H1601.97V851.555Z" fill="#568a75"/>
<path d="M1554.57 839.155H1520.47V844.455H1554.57V839.155Z" fill="#568a75"/>
<path d="M1577.37 839.155H1557.77V844.455H1577.37V839.155Z" fill="#568a75"/>
<path d="M1601.97 839.155H1580.17V844.455H1601.97V839.155Z" fill="#568a75"/>
<path d="M2070.97 398.755H2046.17V404.055H2070.97V398.755Z" fill="#568a75"/>
<path d="M2101.37 398.755H2073.97V404.055H2101.37V398.755Z" fill="#568a75"/>
<path d="M2120.97 398.755H2103.47V404.055H2120.97V398.755Z" fill="#568a75"/>
<path d="M2137.27 398.755H2123.77V404.055H2137.27V398.755Z" fill="#568a75"/>
<path d="M2084.27 386.355H2046.17V391.655H2084.27V386.355Z" fill="#568a75"/>
<path d="M2109.87 386.355H2087.87V391.655H2109.87V386.355Z" fill="#568a75"/>
<path d="M2137.27 386.355H2112.87V391.655H2137.27V386.355Z" fill="#568a75"/>
<path d="M1969.37 634.655H1939.57V639.955H1969.37V634.655Z" fill="#568a75"/>
<path d="M2005.87 634.655H1972.97V639.955H2005.87V634.655Z" fill="#568a75"/>
<path d="M2029.17 634.655H2008.27V639.955H2029.17V634.655Z" fill="#568a75"/>
<path d="M2048.77 634.655H2032.57V639.955H2048.77V634.655Z" fill="#568a75"/>
<path d="M1985.27 622.255H1939.57V627.555H1985.27V622.255Z" fill="#568a75"/>
<path d="M2015.87 622.255H1989.57V627.555H2015.87V622.255Z" fill="#568a75"/>
<path d="M2048.77 622.255H2019.57V627.555H2048.77V622.255Z" fill="#568a75"/>
<path d="M2376.37 1084.86C2348.97 1130.86 2298.77 1161.66 2241.37 1161.86C2154.37 1162.06 2083.77 1091.66 2083.57 1004.76C2083.37 917.755 2153.67 847.155 2240.67 846.955L2240.97 1004.46L2376.37 1084.86Z" fill="#7798F8"/>
<path d="M2382.87 892.155L2256.27 985.855L2255.97 828.455C2307.97 828.355 2354.07 853.355 2382.87 892.155Z" fill="#E31368"/>
<path d="M2420.67 997.055C2420.77 1026.56 2412.67 1054.26 2398.57 1077.96L2263.17 997.455L2416.97 963.455C2419.37 974.255 2420.57 985.555 2420.67 997.055Z" fill="#568a75"/>
<path d="M2415.27 953.255L2265.47 989.155L2389.87 900.555C2401.47 916.155 2410.17 933.955 2415.27 953.255Z" fill="#019288"/>
<path d="M1240.17 452.356L948.974 504.556C948.374 504.656 947.974 505.256 948.074 505.856L1016.47 887.155C1016.57 887.755 1017.17 888.156 1017.77 888.056L1308.57 835.956C1309.17 835.856 1309.57 835.255 1309.47 834.655L1240.97 452.856C1240.87 452.556 1240.57 452.256 1240.17 452.356Z" fill="#060633"/>
<path d="M1231.36 462.367L958.152 513.306L1025.59 874.989L1298.79 824.05L1231.36 462.367Z" fill="white"/>
<path d="M1172.07 575.855L1055.47 597.555C1055.27 597.555 1055.17 597.455 1055.07 597.355L1054.67 594.955C1054.67 594.755 1054.77 594.655 1054.87 594.555L1171.47 572.855C1171.67 572.855 1171.77 572.955 1171.87 573.055L1172.27 575.455C1172.27 575.655 1172.17 575.755 1172.07 575.855Z" fill="#BDD1F9"/>
<path d="M1176.47 599.656L1059.87 621.456C1059.67 621.456 1059.57 621.356 1059.47 621.256L1059.07 618.856C1059.07 618.656 1059.17 618.556 1059.27 618.456L1175.87 596.756C1176.07 596.756 1176.17 596.856 1176.27 596.956L1176.67 599.356C1176.77 599.456 1176.67 599.656 1176.47 599.656Z" fill="#BDD1F9"/>
<path d="M1173.37 587.955L1057.57 609.455C1057.47 609.455 1057.27 609.355 1057.27 609.255L1056.77 606.755C1056.77 606.655 1056.87 606.455 1056.97 606.455L1172.77 584.855C1172.87 584.855 1173.07 584.955 1173.07 585.055L1173.57 587.555C1173.57 587.755 1173.47 587.855 1173.37 587.955Z" fill="#BDD1F9"/>
<path d="M1044.37 634.456L999.174 642.856C998.174 643.056 997.174 642.356 997.074 641.356L988.674 596.156C988.474 595.156 989.174 594.156 990.174 594.056L1035.37 585.656C1036.37 585.456 1037.37 586.156 1037.47 587.156L1045.87 632.356C1045.97 633.356 1045.27 634.256 1044.37 634.456ZM1000.27 638.956L1041.87 631.156L1034.07 589.556L992.474 597.356L1000.27 638.956Z" fill="#BDD1F9"/>
<path d="M1017.37 632.256H1017.27C1016.27 632.356 1015.37 631.856 1014.87 631.056C1010.47 623.356 1004.87 616.556 998.174 610.556C997.174 609.656 997.074 608.156 997.974 607.056C998.874 606.056 1000.37 605.956 1001.47 606.856C1007.17 611.856 1012.17 617.556 1016.27 623.856C1021.57 607.356 1030.47 591.856 1042.17 578.656C1043.07 577.656 1044.57 577.556 1045.67 578.456C1046.67 579.356 1046.77 580.856 1045.87 581.956C1033.47 595.956 1024.27 612.756 1019.47 630.456C1018.97 631.456 1018.27 632.056 1017.37 632.256Z" fill="#019288"/>
<path d="M1056.97 702.155L1011.77 710.555C1010.77 710.755 1009.77 710.055 1009.67 709.055L1001.27 663.855C1001.07 662.855 1001.77 661.855 1002.77 661.755L1047.97 653.355C1048.97 653.155 1049.97 653.855 1050.07 654.855L1058.47 700.055C1058.57 700.955 1057.97 701.955 1056.97 702.155ZM1012.87 706.655L1054.47 698.855L1046.67 657.255L1005.07 665.055L1012.87 706.655Z" fill="#BDD1F9"/>
<path d="M1029.97 699.955H1029.87C1028.87 700.055 1027.97 699.556 1027.47 698.756C1023.07 691.056 1017.47 684.256 1010.77 678.256C1009.77 677.356 1009.67 675.856 1010.57 674.756C1011.47 673.756 1012.97 673.655 1014.07 674.555C1019.77 679.555 1024.77 685.255 1028.87 691.555C1034.17 675.055 1043.07 659.556 1054.77 646.356C1055.67 645.356 1057.17 645.256 1058.27 646.156C1059.27 647.056 1059.37 648.556 1058.47 649.656C1046.07 663.656 1036.87 680.455 1032.07 698.155C1031.57 699.055 1030.87 699.755 1029.97 699.955Z" fill="#019288"/>
<path d="M1069.57 769.856L1024.37 778.256C1023.37 778.456 1022.37 777.756 1022.27 776.756L1013.87 731.556C1013.67 730.556 1014.37 729.556 1015.37 729.456L1060.57 721.056C1061.57 720.856 1062.57 721.556 1062.67 722.556L1071.07 767.756C1071.17 768.656 1070.57 769.656 1069.57 769.856ZM1025.47 774.256L1067.07 766.456L1059.27 724.856L1017.67 732.656L1025.47 774.256Z" fill="#BDD1F9"/>
<path d="M1042.57 767.656H1042.47C1041.47 767.756 1040.57 767.256 1040.07 766.456C1035.67 758.756 1030.07 751.956 1023.37 745.956C1022.37 745.056 1022.27 743.556 1023.17 742.456C1024.07 741.456 1025.57 741.356 1026.67 742.256C1032.37 747.256 1037.37 752.956 1041.47 759.256C1046.77 742.756 1055.67 727.256 1067.37 714.056C1068.27 713.056 1069.77 712.956 1070.87 713.856C1071.87 714.756 1071.97 716.256 1071.07 717.356C1058.67 731.356 1049.47 748.156 1044.67 765.856C1044.27 766.756 1043.47 767.456 1042.57 767.656Z" fill="#019288"/>
<path d="M1082.17 837.456L1036.97 845.856C1035.97 846.056 1034.97 845.356 1034.87 844.356L1026.47 799.156C1026.27 798.156 1026.97 797.156 1027.97 797.056L1073.17 788.656C1074.17 788.456 1075.17 789.156 1075.27 790.156L1083.67 835.356C1083.87 836.356 1083.17 837.256 1082.17 837.456ZM1038.07 841.956L1079.67 834.156L1071.87 792.556L1030.27 800.356L1038.07 841.956Z" fill="#BDD1F9"/>
<path d="M1055.17 835.256H1055.07C1054.07 835.356 1053.17 834.856 1052.67 834.056C1048.27 826.356 1042.67 819.556 1035.97 813.556C1034.97 812.656 1034.87 811.156 1035.77 810.056C1036.67 809.056 1038.17 808.956 1039.27 809.856C1044.97 814.856 1049.97 820.556 1054.07 826.856C1059.37 810.356 1068.27 794.856 1079.97 781.656C1080.87 780.656 1082.37 780.556 1083.47 781.456C1084.47 782.356 1084.57 783.856 1083.67 784.956C1071.27 798.956 1062.07 815.756 1057.27 833.456C1056.87 834.456 1056.07 835.156 1055.17 835.256Z" fill="#019288"/>
<path d="M1198.27 716.355L1081.67 738.055C1081.47 738.055 1081.37 737.955 1081.27 737.855L1080.87 735.455C1080.87 735.255 1080.97 735.155 1081.07 735.055L1197.67 713.355C1197.87 713.355 1197.97 713.455 1198.07 713.555L1198.47 715.955C1198.47 716.155 1198.37 716.355 1198.27 716.355Z" fill="#BDD1F9"/>
<path d="M1245.17 719.956L1083.87 750.056C1083.67 750.056 1083.57 749.956 1083.47 749.856L1083.07 747.456C1083.07 747.256 1083.17 747.156 1083.27 747.056L1244.57 716.956C1244.77 716.956 1244.87 717.056 1244.97 717.156L1245.37 719.556C1245.47 719.756 1245.37 719.956 1245.17 719.956Z" fill="#BDD1F9"/>
<path d="M1210.27 780.956L1093.67 802.656C1093.47 802.656 1093.37 802.556 1093.27 802.456L1092.87 800.056C1092.87 799.856 1092.97 799.756 1093.07 799.656L1209.67 777.956C1209.87 777.956 1209.97 778.056 1210.07 778.156L1210.47 780.556C1210.57 780.756 1210.47 780.856 1210.27 780.956Z" fill="#BDD1F9"/>
<path d="M1214.77 804.756L1098.17 826.456C1097.97 826.456 1097.87 826.356 1097.77 826.256L1097.37 823.856C1097.37 823.656 1097.47 823.556 1097.57 823.456L1214.17 801.756C1214.37 801.756 1214.47 801.856 1214.57 801.956L1214.97 804.356C1214.97 804.556 1214.87 804.756 1214.77 804.756Z" fill="#BDD1F9"/>
<path d="M1257.17 784.556L1095.87 814.656C1095.67 814.656 1095.57 814.556 1095.47 814.456L1095.07 812.056C1095.07 811.856 1095.17 811.756 1095.27 811.656L1256.57 781.556C1256.77 781.556 1256.87 781.656 1256.97 781.756L1257.37 784.156C1257.47 784.356 1257.37 784.456 1257.17 784.556Z" fill="#BDD1F9"/>
<path d="M1005.67 547.956L1012.77 546.656C1017.47 545.756 1021.27 546.756 1022.27 551.756C1023.17 556.556 1019.97 559.456 1015.37 560.256L1012.07 560.856L1013.57 568.756L1009.77 569.456L1005.67 547.956ZM1014.37 557.256C1017.57 556.656 1018.87 555.056 1018.37 552.456C1017.87 549.756 1016.07 549.156 1012.97 549.756L1010.07 550.356L1011.47 557.856L1014.37 557.256Z" fill="#568a75"/>
<path d="M1025.37 544.256L1032.57 542.956C1037.07 542.156 1040.87 543.056 1041.77 547.856C1042.67 552.456 1039.57 555.256 1035.07 556.056L1031.67 556.656L1033.27 565.056L1029.37 565.756L1025.37 544.256ZM1034.07 553.056C1037.07 552.456 1038.37 550.956 1037.97 548.556C1037.47 546.056 1035.77 545.556 1032.77 546.056L1029.77 546.656L1031.07 553.656L1034.07 553.056ZM1036.47 552.356L1045.37 562.856L1041.07 563.656L1034.07 555.156L1036.47 552.356Z" fill="#568a75"/>
<path d="M1048.57 558.956L1053.77 557.956L1050.97 542.856L1045.77 543.856L1045.17 540.656L1059.37 537.956L1059.97 541.156L1054.77 542.156L1057.57 557.256L1062.77 556.256L1063.37 559.456L1049.17 562.156L1048.57 558.956Z" fill="#568a75"/>
<path d="M1065.57 547.856C1064.27 540.756 1066.97 536.156 1071.97 535.156C1076.97 534.256 1081.17 537.556 1082.57 544.656C1083.87 551.856 1081.17 556.556 1076.17 557.556C1071.17 558.456 1066.97 555.056 1065.57 547.856ZM1078.67 545.456C1077.77 540.456 1075.47 538.056 1072.67 538.556C1069.97 539.056 1068.67 542.156 1069.57 547.156C1070.47 552.256 1072.87 554.756 1075.57 554.256C1078.37 553.656 1079.57 550.456 1078.67 545.456Z" fill="#568a75"/>
<path d="M1084.77 533.155L1091.97 531.855C1096.47 531.055 1100.27 531.955 1101.17 536.755C1102.07 541.355 1098.97 544.155 1094.47 544.955L1091.07 545.555L1092.67 553.955L1088.77 554.655L1084.77 533.155ZM1093.47 542.055C1096.47 541.455 1097.77 539.955 1097.37 537.555C1096.87 535.055 1095.17 534.555 1092.17 535.055L1089.17 535.655L1090.47 542.655L1093.47 542.055ZM1095.87 541.255L1104.77 551.755L1100.47 552.555L1093.47 544.055L1095.87 541.255Z" fill="#568a75"/>
<path d="M1108.07 547.855L1113.27 546.855L1110.47 531.755L1105.27 532.755L1104.67 529.555L1118.87 526.855L1119.47 530.055L1114.27 531.055L1117.07 546.155L1122.27 545.155L1122.87 548.355L1108.67 551.055L1108.07 547.855Z" fill="#568a75"/>
<path d="M1130.27 528.055L1123.47 529.355L1122.87 526.155L1140.27 522.855L1140.87 526.055L1134.07 527.355L1137.47 545.755L1133.67 546.455L1130.27 528.055Z" fill="#568a75"/>
<path d="M1147.67 540.456L1152.87 539.456L1150.07 524.356L1144.87 525.356L1144.27 522.156L1158.47 519.456L1159.07 522.656L1153.87 523.656L1156.67 538.756L1161.87 537.756L1162.47 540.956L1148.27 543.656L1147.67 540.456Z" fill="#568a75"/>
<path d="M1164.67 518.256L1178.47 515.656L1179.07 518.856L1169.07 520.756L1170.07 526.256L1178.57 524.656L1179.17 527.856L1170.67 529.456L1171.87 535.856L1182.17 533.956L1182.77 537.156L1168.57 539.756L1164.67 518.256Z" fill="#568a75"/>
<path d="M1186.57 533.656L1188.27 530.556C1190.17 531.756 1192.47 532.356 1194.77 531.856C1197.27 531.356 1198.37 530.056 1198.17 528.556C1197.77 526.656 1196.27 526.356 1193.97 525.856L1190.77 525.156C1188.37 524.656 1185.67 523.456 1185.07 520.256C1184.47 516.856 1187.07 513.556 1191.47 512.756C1194.07 512.256 1196.77 512.856 1198.87 514.256L1197.37 517.056C1195.67 516.156 1194.07 515.756 1191.87 516.156C1189.87 516.556 1188.57 517.756 1188.87 519.356C1189.17 521.056 1191.07 521.356 1193.07 521.756L1196.17 522.456C1199.07 522.956 1201.37 524.256 1201.97 527.356C1202.67 530.856 1200.17 534.356 1195.17 535.256C1192.17 535.956 1189.07 535.356 1186.57 533.656Z" fill="#568a75"/>
<path d="M1204.67 658.756L1071.47 683.556C1071.27 683.556 1071.07 683.456 1071.07 683.256L1070.67 680.956C1070.67 680.756 1070.77 680.556 1070.97 680.556L1204.17 655.756C1204.37 655.756 1204.57 655.856 1204.57 656.056L1204.97 658.356C1204.97 658.556 1204.87 658.756 1204.67 658.756Z" fill="#BDD1F9"/>
<path d="M1180.77 650.855L1069.17 671.655C1069.07 671.655 1068.87 671.555 1068.87 671.455L1068.37 668.955C1068.37 668.855 1068.47 668.655 1068.57 668.655L1180.17 647.855C1180.27 647.855 1180.47 647.955 1180.47 648.055L1180.97 650.555C1180.97 650.755 1180.87 650.855 1180.77 650.855Z" fill="#BDD1F9"/>
<path d="M1154.37 456.256L1110.77 464.056C1110.67 463.456 1110.67 462.856 1110.57 462.256C1108.67 451.456 1098.37 444.256 1087.57 446.256C1076.77 448.156 1069.57 458.456 1071.57 469.256C1071.67 469.856 1071.77 470.456 1071.97 471.056L1028.37 478.856C1020.07 480.356 1014.57 488.256 1015.97 496.656L1019.67 517.156C1019.97 519.056 1021.87 520.356 1023.77 520.056L1173.07 493.256C1174.97 492.956 1176.27 491.056 1175.97 489.156L1172.27 468.656C1170.67 460.256 1162.77 454.756 1154.37 456.256ZM1093.27 478.156C1086.37 479.356 1079.87 474.856 1078.57 467.956C1077.37 461.056 1081.87 454.556 1088.77 453.256C1095.67 452.056 1102.17 456.556 1103.47 463.456C1104.67 470.356 1100.17 476.956 1093.27 478.156Z" fill="#568a75"/>
<path d="M690.859 717.355L612.916 708.037L603.598 785.979L681.541 795.297L690.859 717.355Z" fill="#83A8FF"/>
<path d="M690.785 717.315L612.843 707.997L611.276 721.103L689.219 730.421L690.785 717.315Z" fill="#7798F8"/>
<path d="M681.224 835.665L603.799 848.618L616.752 926.042L694.176 913.09L681.224 835.665Z" fill="#E62A77"/>
<path d="M681.205 835.621L603.78 848.573L605.958 861.592L683.383 848.64L681.205 835.621Z" fill="#D71263"/>
<g opacity="0.8">
<path d="M852.374 711.256H754.474V888.256H879.874V735.656L852.374 711.256Z" fill="white"/>
<path d="M887.674 736.856H852.474C851.774 736.856 851.274 736.356 851.274 735.656V711.256C851.274 710.556 851.774 710.056 852.474 710.056C853.174 710.056 853.674 710.556 853.674 711.256V734.456H887.774C888.474 734.456 888.974 734.956 888.974 735.656C888.874 736.356 888.274 736.856 887.674 736.856Z" fill="#DAE6FF"/>
<path d="M841.774 735.456H789.474C788.774 735.456 788.274 734.956 788.274 734.256C788.274 733.556 788.774 733.056 789.474 733.056H841.774C842.474 733.056 842.974 733.556 842.974 734.256C842.874 734.856 842.374 735.456 841.774 735.456Z" fill="#7798F8"/>
<path d="M870.074 758.255H764.274C763.574 758.255 763.074 757.755 763.074 757.055C763.074 756.355 763.574 755.855 764.274 755.855H869.974C870.674 755.855 871.174 756.355 871.174 757.055C871.174 757.755 870.674 758.255 870.074 758.255Z" fill="#7798F8"/>
<path d="M870.074 766.255H764.274C763.574 766.255 763.074 765.755 763.074 765.055C763.074 764.355 763.574 763.855 764.274 763.855H869.974C870.674 763.855 871.174 764.355 871.174 765.055C871.174 765.655 870.674 766.255 870.074 766.255Z" fill="#7798F8"/>
<path d="M870.074 777.556H764.274C763.574 777.556 763.074 777.056 763.074 776.356C763.074 775.656 763.574 775.156 764.274 775.156H869.974C870.674 775.156 871.174 775.656 871.174 776.356C871.174 777.056 870.674 777.556 870.074 777.556Z" fill="#7798F8"/>
<path d="M870.074 785.556H764.274C763.574 785.556 763.074 785.056 763.074 784.356C763.074 783.656 763.574 783.156 764.274 783.156H869.974C870.674 783.156 871.174 783.656 871.174 784.356C871.174 784.956 870.674 785.556 870.074 785.556Z" fill="#7798F8"/>
<path d="M870.074 793.456H764.274C763.574 793.456 763.074 792.956 763.074 792.256C763.074 791.556 763.574 791.056 764.274 791.056H869.974C870.674 791.056 871.174 791.556 871.174 792.256C871.174 792.956 870.674 793.456 870.074 793.456Z" fill="#7798F8"/>
<path d="M870.074 801.456H764.274C763.574 801.456 763.074 800.956 763.074 800.256C763.074 799.556 763.574 799.056 764.274 799.056H869.974C870.674 799.056 871.174 799.556 871.174 800.256C871.174 800.956 870.674 801.456 870.074 801.456Z" fill="#7798F8"/>
<path d="M870.074 831.656H764.274C763.574 831.656 763.074 831.156 763.074 830.456C763.074 829.756 763.574 829.256 764.274 829.256H869.974C870.674 829.256 871.174 829.756 871.174 830.456C871.174 831.156 870.674 831.656 870.074 831.656Z" fill="#7798F8"/>
<path d="M870.074 839.556H764.274C763.574 839.556 763.074 839.056 763.074 838.356C763.074 837.656 763.574 837.156 764.274 837.156H869.974C870.674 837.156 871.174 837.656 871.174 838.356C871.174 839.056 870.674 839.556 870.074 839.556Z" fill="#7798F8"/>
<path d="M870.074 847.556H764.274C763.574 847.556 763.074 847.056 763.074 846.356C763.074 845.656 763.574 845.156 764.274 845.156H869.974C870.674 845.156 871.174 845.656 871.174 846.356C871.174 847.056 870.674 847.556 870.074 847.556Z" fill="#7798F8"/>
<path d="M870.074 855.556H764.274C763.574 855.556 763.074 855.056 763.074 854.356C763.074 853.656 763.574 853.156 764.274 853.156H869.974C870.674 853.156 871.174 853.656 871.174 854.356C871.174 855.056 870.674 855.556 870.074 855.556Z" fill="#7798F8"/>
</g>
<g opacity="0.8">
<path d="M717.974 409.356H620.074V586.356H745.474V433.756L717.974 409.356Z" fill="white"/>
<path d="M753.274 434.956H717.974C717.274 434.956 716.774 434.456 716.774 433.756V409.356C716.774 408.656 717.274 408.156 717.974 408.156C718.674 408.156 719.174 408.656 719.174 409.356V432.556H753.274C753.974 432.556 754.474 433.056 754.474 433.756C754.474 434.456 753.874 434.956 753.274 434.956Z" fill="#DAE6FF"/>
<path d="M707.374 433.556H654.974C654.274 433.556 653.774 433.056 653.774 432.356C653.774 431.656 654.274 431.156 654.974 431.156H707.274C707.974 431.156 708.474 431.656 708.474 432.356C708.474 432.956 707.974 433.556 707.374 433.556Z" fill="#7798F8"/>
<path d="M735.674 456.356H629.874C629.174 456.356 628.674 455.856 628.674 455.156C628.674 454.456 629.174 453.956 629.874 453.956H735.574C736.274 453.956 736.774 454.456 736.774 455.156C736.874 455.856 736.274 456.356 735.674 456.356Z" fill="#7798F8"/>
<path d="M735.674 464.356H629.874C629.174 464.356 628.674 463.856 628.674 463.156C628.674 462.456 629.174 461.956 629.874 461.956H735.574C736.274 461.956 736.774 462.456 736.774 463.156C736.874 463.756 736.274 464.356 735.674 464.356Z" fill="#7798F8"/>
<path d="M735.674 475.656H629.874C629.174 475.656 628.674 475.156 628.674 474.456C628.674 473.756 629.174 473.256 629.874 473.256H735.574C736.274 473.256 736.774 473.756 736.774 474.456C736.874 475.156 736.274 475.656 735.674 475.656Z" fill="#7798F8"/>
<path d="M735.674 483.656H629.874C629.174 483.656 628.674 483.156 628.674 482.456C628.674 481.756 629.174 481.256 629.874 481.256H735.574C736.274 481.256 736.774 481.756 736.774 482.456C736.874 483.156 736.274 483.656 735.674 483.656Z" fill="#7798F8"/>
<path d="M735.674 491.656H629.874C629.174 491.656 628.674 491.156 628.674 490.456C628.674 489.756 629.174 489.256 629.874 489.256H735.574C736.274 489.256 736.774 489.756 736.774 490.456C736.874 491.056 736.274 491.656 735.674 491.656Z" fill="#7798F8"/>
<path d="M735.674 499.556H629.874C629.174 499.556 628.674 499.056 628.674 498.356C628.674 497.656 629.174 497.156 629.874 497.156H735.574C736.274 497.156 736.774 497.656 736.774 498.356C736.774 499.056 736.274 499.556 735.674 499.556Z" fill="#7798F8"/>
<path d="M735.674 529.756H629.874C629.174 529.756 628.674 529.256 628.674 528.556C628.674 527.856 629.174 527.356 629.874 527.356H735.574C736.274 527.356 736.774 527.856 736.774 528.556C736.774 529.256 736.274 529.756 735.674 529.756Z" fill="#7798F8"/>
<path d="M735.674 537.756H629.874C629.174 537.756 628.674 537.256 628.674 536.556C628.674 535.856 629.174 535.356 629.874 535.356H735.574C736.274 535.356 736.774 535.856 736.774 536.556C736.874 537.156 736.274 537.756 735.674 537.756Z" fill="#7798F8"/>
<path d="M735.674 545.656H629.874C629.174 545.656 628.674 545.156 628.674 544.456C628.674 543.756 629.174 543.256 629.874 543.256H735.574C736.274 543.256 736.774 543.756 736.774 544.456C736.874 545.156 736.274 545.656 735.674 545.656Z" fill="#7798F8"/>
<path d="M735.674 553.656H629.874C629.174 553.656 628.674 553.156 628.674 552.456C628.674 551.756 629.174 551.256 629.874 551.256H735.574C736.274 551.256 736.774 551.756 736.774 552.456C736.874 553.156 736.274 553.656 735.674 553.656Z" fill="#7798F8"/>
</g>
<path d="M734.174 755.756H699.974V760.756H734.174V755.756Z" fill="#83A8FF"/>
<path d="M734.174 842.756H699.974V847.756H734.174V842.756Z" fill="#83A8FF"/>
<path d="M789.15 575.751L711.208 566.433L701.89 644.376L779.832 653.694L789.15 575.751Z" fill="#568a75"/>
<path d="M789.176 575.723L711.234 566.405L709.667 579.511L787.609 588.829L789.176 575.723Z" fill="#248FB5"/>
<path d="M897.731 406.919L819.239 407.986L820.305 486.478L898.798 485.412L897.731 406.919Z" fill="#83A8FF"/>
<path d="M897.675 406.917L819.182 407.984L819.362 421.183L897.854 420.116L897.675 406.917Z" fill="#7798F8"/>
<path d="M770.889 440.377L698.253 470.152L728.028 542.788L800.665 513.013L770.889 440.377Z" fill="#E31368"/>
<path d="M770.861 440.348L698.225 470.123L703.232 482.337L775.868 452.561L770.861 440.348Z" fill="#B70F5B"/>
<path d="M1324.77 1058.46H1017.67C1002.57 1058.46 990.374 1070.66 990.374 1085.76V1221.56C990.374 1236.66 1002.57 1248.86 1017.67 1248.86H1047.77V1301.56L1080.27 1248.86H1324.87C1339.97 1248.86 1352.17 1236.66 1352.17 1221.56V1085.76C1352.07 1070.66 1339.77 1058.46 1324.77 1058.46Z" fill="white"/>
<path d="M1262.07 1134.05C1262.07 1116.75 1276.07 1102.75 1293.37 1102.75C1310.67 1102.75 1324.67 1116.75 1324.67 1134.05C1324.67 1151.35 1310.67 1165.35 1293.37 1165.35C1276.07 1165.35 1262.07 1151.35 1262.07 1134.05Z" fill="#BDD1F9"/>
<path d="M1131.37 1110.86H1228.47C1228.67 1110.86 1228.77 1110.76 1228.77 1110.56V1102.86C1228.77 1102.66 1228.67 1102.56 1228.47 1102.56H1131.37C1131.17 1102.56 1131.07 1102.66 1131.07 1102.86V1110.56C1131.17 1110.76 1131.27 1110.86 1131.37 1110.86Z" fill="#BDD1F9"/>
<path d="M1018.47 1139.96H1228.57C1228.77 1139.96 1228.87 1139.86 1228.87 1139.66V1131.96C1228.87 1131.76 1228.77 1131.66 1228.57 1131.66H1018.47C1018.27 1131.66 1018.17 1131.76 1018.17 1131.96V1139.66C1018.17 1139.86 1018.27 1139.96 1018.47 1139.96Z" fill="#BDD1F9"/>
<path d="M1066.87 1161.86H1228.57C1228.77 1161.86 1228.87 1161.76 1228.87 1161.56V1153.86C1228.87 1153.66 1228.77 1153.56 1228.57 1153.56H1066.87C1066.67 1153.56 1066.57 1153.66 1066.57 1153.86V1161.56C1066.57 1161.76 1066.77 1161.86 1066.87 1161.86Z" fill="#BDD1F9"/>
<path d="M1087.57 1215.26C1087.57 1209.86 1083.17 1205.35 1077.67 1205.35C1072.27 1205.35 1067.77 1209.76 1067.77 1215.26C1067.77 1220.66 1072.17 1225.15 1077.67 1225.15C1083.17 1225.15 1087.57 1220.76 1087.57 1215.26Z" fill="#BDD1F9"/>
<path d="M1138.87 1225.15C1144.27 1225.15 1148.77 1220.76 1148.77 1215.26C1148.77 1209.86 1144.37 1205.35 1138.87 1205.35C1133.47 1205.35 1128.97 1209.76 1128.97 1215.26C1129.07 1220.76 1133.47 1225.15 1138.87 1225.15Z" fill="#BDD1F9"/>
<path d="M1195.27 1225.15C1200.74 1225.15 1205.17 1220.72 1205.17 1215.26C1205.17 1209.79 1200.74 1205.35 1195.27 1205.35C1189.81 1205.35 1185.37 1209.79 1185.37 1215.26C1185.37 1220.72 1189.81 1225.15 1195.27 1225.15Z" fill="#BDD1F9"/>
<path d="M1848.17 2297.06C2789.27 2297.06 3552.17 2255.1 3552.17 2203.36C3552.17 2151.61 2789.27 2109.66 1848.17 2109.66C907.081 2109.66 144.174 2151.61 144.174 2203.36C144.174 2255.1 907.081 2297.06 1848.17 2297.06Z" fill="#568a75"/>
<path d="M431.874 771.155C477.774 780.655 519.074 813.756 523.774 885.856C528.274 954.056 490.974 1021.66 509.374 1089.26C528.274 1158.66 582.274 1182.36 562.574 1268.16C555.574 1298.76 544.274 1328.46 544.774 1360.56C545.974 1427.76 592.974 1468.86 615.874 1521.56C645.474 1589.66 634.574 1683.46 595.074 1739.36C520.074 1845.76 392.874 1807.56 298.274 1797.46C243.274 1791.56 193.774 1752.26 179.974 1672.56C163.974 1579.96 205.774 1535.36 231.874 1462.16C257.274 1390.86 225.974 1306.96 225.274 1227.36C224.474 1138.36 275.874 1089.56 285.274 1007.76C292.074 948.656 268.274 887.756 291.974 831.856C304.574 802.256 327.774 784.055 351.774 776.055C375.674 768.255 404.574 765.555 431.874 771.155Z" fill="#0E8BAD"/>
<path d="M410.174 1197.26H399.274V2037.06H410.174V1197.26Z" fill="#222638"/>
<path d="M317.448 1369.9L307.535 1374.43L399.673 1576.07L409.587 1571.54L317.448 1369.9Z" fill="#222638"/>
<path d="M490.952 1585.97L400.188 1716.4L409.135 1722.63L499.898 1592.2L490.952 1585.97Z" fill="#222638"/>
<path d="M507.674 2180.06H296.774C294.174 2180.06 292.074 2177.96 292.074 2175.36V2006.06H512.274V2175.36C512.374 2177.96 510.274 2180.06 507.674 2180.06Z" fill="#222638"/>
<path d="M1709.97 1588.26H1684.67V1706.26H1709.97V1588.26Z" fill="#060633"/>
<path d="M1900.47 1779.46H1600.77C1592.17 1779.46 1585.17 1772.45 1585.17 1763.85V1696.06C1585.17 1687.46 1592.17 1680.46 1600.77 1680.46H1900.47C1909.07 1680.46 1916.07 1687.46 1916.07 1696.06V1763.85C1916.07 1772.45 1909.07 1779.46 1900.47 1779.46Z" fill="#568a75"/>
<path d="M1793.57 1610.06H1577.87C1566.47 1610.06 1557.27 1600.86 1557.27 1589.46V1373.76C1557.27 1362.36 1566.47 1353.16 1577.87 1353.16H1793.57C1804.97 1353.16 1814.17 1362.36 1814.17 1373.76V1589.46C1814.17 1600.86 1804.97 1610.06 1793.57 1610.06Z" fill="#568a75"/>
<path d="M1770.07 1779.46H1744.77V2136.66H1770.07V1779.46Z" fill="#060633"/>
<path d="M1631.97 2144.26H1883.37C1887.57 2144.26 1890.97 2140.86 1890.97 2136.66C1890.97 2132.46 1887.57 2129.06 1883.37 2129.06H1631.97C1627.77 2129.06 1624.37 2132.46 1624.37 2136.66C1624.47 2140.86 1627.87 2144.26 1631.97 2144.26Z" fill="#060633"/>
<path d="M1845.57 2160.06C1845.57 2149.86 1853.87 2141.56 1864.07 2141.56C1874.27 2141.56 1882.57 2149.86 1882.57 2160.06C1882.57 2170.26 1874.27 2178.56 1864.07 2178.56C1853.87 2178.56 1845.57 2170.26 1845.57 2160.06Z" fill="#060633"/>
<path d="M1637.47 2160.06C1637.47 2149.86 1645.77 2141.56 1655.97 2141.56C1666.17 2141.56 1674.47 2149.86 1674.47 2160.06C1674.47 2170.26 1666.17 2178.56 1655.97 2178.56C1645.77 2178.56 1637.47 2170.26 1637.47 2160.06Z" fill="#060633"/>
<path d="M1738.97 2160.06C1738.97 2149.86 1747.27 2141.56 1757.47 2141.56C1767.67 2141.56 1775.97 2149.86 1775.97 2160.06C1775.97 2170.26 1767.67 2178.56 1757.47 2178.56C1747.27 2178.56 1738.97 2170.26 1738.97 2160.06Z" fill="#060633"/>
<path d="M2040.87 1336.16C2040.87 1336.16 2041.27 1305.56 2043.77 1294.56C2046.37 1283.56 2040.67 1270.96 2047.17 1270.16C2053.67 1269.46 2057.57 1290.86 2057.57 1290.86C2057.57 1290.86 2072.47 1273.26 2076.17 1267.16C2079.97 1261.06 2089.37 1251.86 2094.07 1254.26C2098.77 1256.66 2078.67 1284.66 2078.67 1284.66C2078.67 1284.66 2097.87 1262.76 2102.67 1263.96C2107.47 1265.26 2087.07 1296.76 2087.07 1296.76C2087.07 1296.76 2106.47 1272.36 2109.67 1271.76C2112.87 1271.16 2113.77 1275.26 2108.97 1285.56C2104.17 1295.86 2096.67 1305.16 2096.67 1305.16C2096.67 1305.16 2111.57 1289.06 2114.07 1287.76C2116.57 1286.46 2120.87 1286.46 2112.27 1300.96C2103.57 1315.46 2079.77 1343.86 2062.07 1353.16L2040.87 1336.16Z" fill="#AD5959"/>
<path d="M2021.77 2073.76C2021.77 2073.76 2026.57 2137.86 2027.07 2138.76C2027.57 2139.66 2022.47 2147.56 2022.47 2147.56L2002.67 2151.16L1984.57 2142.86C1984.57 2142.86 1974.77 2080.26 1972.87 2071.06C1970.97 2061.86 2021.77 2073.76 2021.77 2073.76Z" fill="#AD5959"/>
<path d="M1984.57 2142.86C1984.57 2142.86 2007.47 2150.86 2026.97 2137.66C2026.97 2137.66 2103.07 2166.16 2100.77 2187.86C2100.77 2187.86 2103.97 2194.36 2071.07 2192.96C2038.07 2191.56 1986.87 2190.06 1985.47 2189.36C1984.07 2188.46 1977.57 2191.96 1984.57 2142.86Z" fill="#0B0755"/>
<path d="M1863.67 2068.76C1863.67 2068.76 1862.77 2131.66 1863.27 2132.56C1863.77 2133.46 1858.67 2141.36 1858.67 2141.36L1838.87 2144.96L1820.77 2136.66C1820.77 2136.66 1822.37 2078.16 1820.47 2068.96C1818.57 2059.66 1863.67 2068.76 1863.67 2068.76Z" fill="#AD5959"/>
<path d="M1820.77 2136.56C1820.77 2136.56 1843.67 2144.56 1863.17 2131.36C1863.17 2131.36 1939.27 2159.86 1936.97 2181.56C1936.97 2181.56 1940.17 2188.06 1907.27 2186.66C1874.27 2185.26 1823.07 2183.76 1821.67 2183.06C1820.17 2182.26 1813.77 2185.66 1820.77 2136.56Z" fill="#0B0755"/>
<path d="M1791.27 1069.76C1791.27 1069.76 1796.07 1060.76 1800.87 1063.86C1812.97 1071.56 1802.67 1083.86 1795.37 1087.06L1791.27 1069.76Z" fill="#933131"/>
<path d="M1790.87 1038.46C1790.77 1037.56 1790.67 1036.66 1790.67 1035.76C1787.07 996.156 1750.77 967.456 1710.87 973.756C1677.67 978.956 1652.67 1008.06 1652.67 1041.76C1652.67 1054.26 1655.87 1065.86 1661.47 1075.76C1669.27 1091.26 1676.17 1104.56 1683.17 1115.46C1694.77 1133.46 1699.87 1154.96 1698.17 1176.26L1696.87 1193.06C1741.27 1211.76 1758.57 1189.06 1758.57 1189.06L1756.57 1158.66C1756.27 1154.66 1759.17 1151.26 1763.07 1150.56C1763.07 1150.56 1763.07 1150.56 1763.17 1150.56C1815.37 1142.36 1793.07 1062.06 1790.87 1038.46Z" fill="#AD5959"/>
<path d="M1723.27 1081.06C1722.97 1077.56 1719.77 1074.96 1716.27 1075.26C1712.77 1075.56 1710.17 1078.76 1710.47 1082.26C1710.77 1085.76 1713.97 1088.36 1717.47 1088.06C1720.97 1087.66 1723.57 1084.56 1723.27 1081.06Z" fill="#060633"/>
<path d="M1779.17 1064.46C1778.87 1060.96 1775.67 1058.36 1772.17 1058.66C1768.67 1058.96 1766.07 1062.16 1766.37 1065.66C1766.67 1069.16 1769.87 1071.76 1773.37 1071.46C1776.87 1071.06 1779.47 1067.96 1779.17 1064.46Z" fill="#060633"/>
<path d="M1699.37 1073.16C1698.67 1073.26 1698.07 1073.06 1697.37 1072.76C1695.47 1071.86 1694.67 1069.56 1695.57 1067.76C1698.27 1062.06 1707.37 1052.96 1722.37 1058.86C1724.27 1059.66 1725.27 1061.76 1724.47 1063.76C1723.67 1065.66 1721.57 1066.66 1719.57 1065.86C1707.27 1061.06 1702.47 1070.66 1702.27 1071.06C1701.87 1072.26 1700.67 1072.96 1699.37 1073.16Z" fill="#060633"/>
<path d="M1758.57 1057.66C1757.87 1057.76 1757.27 1057.56 1756.57 1057.26C1754.67 1056.36 1753.87 1054.06 1754.77 1052.26C1757.47 1046.56 1766.57 1037.46 1781.57 1043.36C1783.47 1044.16 1784.47 1046.26 1783.67 1048.26C1782.87 1050.16 1780.77 1051.16 1778.77 1050.36C1766.47 1045.56 1761.67 1055.16 1761.47 1055.56C1760.97 1056.76 1759.87 1057.56 1758.57 1057.66Z" fill="#060633"/>
<path d="M1684.27 1093.16C1682.97 1091.06 1680.87 1089.56 1678.47 1088.76C1673.57 1087.26 1664.97 1085.96 1659.77 1092.26C1652.07 1101.46 1671.17 1122.36 1686.97 1109.66C1686.87 1109.76 1691.27 1104.46 1684.27 1093.16Z" fill="#AD5959"/>
<path d="M1758.27 1101.26C1752.37 1104.86 1746.57 1102.06 1746.57 1101.96C1745.97 1101.66 1745.77 1101.06 1746.07 1100.46C1746.37 1099.96 1746.97 1099.66 1747.57 1099.96C1747.87 1100.06 1754.27 1103.16 1759.87 1097.06C1760.77 1096.06 1761.27 1095.26 1761.17 1094.76C1761.17 1093.96 1760.17 1093.06 1758.77 1091.86C1755.57 1088.96 1750.17 1084.16 1747.57 1072.46C1747.47 1071.86 1747.77 1071.26 1748.47 1071.16C1749.07 1071.06 1749.67 1071.36 1749.77 1072.06C1752.27 1083.06 1757.07 1087.46 1760.27 1090.36C1761.97 1091.96 1763.37 1093.16 1763.47 1094.86C1763.57 1096.06 1762.97 1097.26 1761.57 1098.76C1760.47 1099.66 1759.37 1100.56 1758.27 1101.26Z" fill="#933131"/>
<path d="M1578.47 1556.66L1804.17 1491.26L1886.87 1554.46L1882.27 1631.86H1882.57L1975.07 1707.76C1996.37 1725.16 2009.67 1750.46 2012.17 1777.86L2041.07 2099.96H1961.87L1877.27 1779.46V2099.96H1806.37L1754.47 1806.06L1636.97 1726.66C1598.47 1700.66 1575.87 1656.86 1577.17 1610.46L1578.47 1556.66Z" fill="#707070"/>
<path d="M1693.17 1184.86H1762.07L1788.77 1300.36V1521.86C1788.77 1521.86 1725.57 1552.46 1642.27 1512.46L1666.57 1253.16L1693.17 1184.86Z" fill="white"/>
<path d="M1693.17 1184.86C1693.17 1184.86 1589.17 1228.86 1568.77 1257.16C1549.87 1283.26 1552.57 1258.46 1498.17 1405.06C1491.07 1424.26 1494.17 1445.36 1505.77 1461.46C1510.47 1468.06 1517.27 1472.96 1524.87 1475.76L1578.37 1495.76L1572.67 1631.96L1676.37 1642.16L1693.17 1184.86Z" fill="#CCCCCC"/>
<path d="M1762.07 1184.86C1762.07 1184.86 1866.07 1228.86 1886.47 1257.16C1906.87 1285.46 1882.57 1631.86 1882.57 1631.86L1778.87 1642.06L1762.07 1184.86Z" fill="#CCCCCC"/>
<path d="M1715.57 1197.86L1727.67 1218.46L1702.37 1510.16L1741.37 1572.96L1770.27 1508.56L1742.27 1216.66L1751.07 1196.06L1727.37 1187.26L1715.57 1197.86Z" fill="black"/>
<path d="M1693.17 1184.86L1698.37 1173.56L1730.77 1184.86L1757.57 1172.56L1762.07 1184.86L1756.37 1206.06L1731.97 1190.16L1708.07 1207.56L1693.17 1184.86Z" fill="white"/>
<path d="M1740.97 1118.06L1777.37 1109.26C1777.37 1109.26 1775.27 1129.46 1762.07 1129.46C1748.87 1129.46 1740.97 1118.06 1740.97 1118.06Z" fill="white"/>
<path d="M1652.67 1203.46L1673.07 1287.56L1652.67 1296.16L1682.77 1470.56L1693.17 1184.86L1652.67 1203.46Z" fill="#707070"/>
<path d="M1861.07 1235.66C1861.07 1235.66 1895.47 1254.56 1910.07 1296.46C1924.67 1338.36 1945.07 1403.66 1972.47 1413.56C1994.27 1421.46 2032.87 1327.76 2032.87 1327.76L2083.87 1345.46C2083.87 1345.46 2051.97 1536.56 1952.77 1519.46C1889.77 1508.56 1869.07 1370.16 1869.07 1370.16L1861.07 1235.66Z" fill="#CCCCCC"/>
<path d="M1802.67 1203.46L1782.27 1287.56L1802.67 1296.16L1772.57 1470.56L1762.07 1184.86L1802.67 1203.46Z" fill="#707070"/>
<path d="M1675.77 1463.56C1675.77 1463.56 1705.07 1453.06 1716.47 1451.66C1727.87 1450.26 1737.87 1440.36 1740.87 1446.26C1743.87 1452.26 1724.77 1463.46 1724.77 1463.46C1724.77 1463.46 1746.77 1471.46 1753.97 1472.86C1761.07 1474.26 1773.27 1480.06 1772.57 1485.36C1771.97 1490.66 1738.07 1481.46 1738.07 1481.46C1738.07 1481.46 1765.77 1492.06 1766.27 1497.06C1766.77 1502.06 1729.47 1493.86 1729.47 1493.86C1729.47 1493.86 1759.57 1503.66 1761.27 1506.46C1762.97 1509.26 1759.37 1511.56 1747.87 1510.66C1736.37 1509.76 1724.87 1505.86 1724.87 1505.86C1724.87 1505.86 1745.57 1514.36 1747.67 1516.26C1749.77 1518.16 1751.37 1522.26 1734.47 1519.16C1717.57 1516.06 1682.07 1503.36 1666.97 1489.76L1675.77 1463.56Z" fill="#AD5959"/>
<path d="M1877.27 1780.76C1877.97 1780.76 1878.57 1780.16 1878.57 1779.46C1878.57 1779.06 1878.27 1736.16 1852.87 1702.76C1836.77 1681.66 1759.27 1634.06 1755.97 1632.06C1755.37 1631.66 1754.57 1631.86 1754.27 1632.46C1753.87 1633.06 1754.07 1633.86 1754.67 1634.16C1755.47 1634.66 1834.97 1683.46 1850.87 1704.26C1875.77 1736.86 1876.07 1778.96 1876.07 1779.36C1875.97 1780.16 1876.57 1780.76 1877.27 1780.76Z" fill="#0B0755"/>
<path d="M1660.67 1512.76C1660.97 1512.76 1661.17 1512.56 1661.27 1512.36L1678.07 1457.76C1678.17 1457.46 1678.07 1457.16 1677.77 1457.06L1585.97 1404.16L1611.57 1343.06C1611.67 1342.76 1611.57 1342.36 1611.27 1342.26C1610.97 1342.16 1610.57 1342.26 1610.47 1342.56L1584.67 1404.16C1584.57 1404.46 1584.67 1404.76 1584.97 1404.96L1676.77 1457.86L1660.27 1511.46L1578.57 1495.16C1578.17 1495.06 1577.87 1495.36 1577.87 1495.66C1577.77 1495.96 1578.07 1496.36 1578.37 1496.36L1660.57 1512.76C1660.57 1512.76 1660.57 1512.76 1660.67 1512.76Z" fill="#17152B"/>
<path d="M1714.07 1102.36C1709.97 1102.46 1705.97 1101.36 1702.47 1099.16C1697.57 1096.16 1694.07 1091.46 1692.77 1085.86C1689.97 1074.26 1697.07 1062.66 1708.67 1059.86C1720.27 1057.06 1731.87 1064.16 1734.67 1075.76C1736.07 1081.36 1735.17 1087.16 1732.17 1092.06C1729.17 1096.96 1724.47 1100.46 1718.87 1101.76C1717.17 1102.16 1715.57 1102.36 1714.07 1102.36ZM1713.17 1060.56C1711.77 1060.56 1710.27 1060.76 1708.87 1061.16C1698.07 1063.76 1691.37 1074.76 1693.97 1085.56C1695.27 1090.86 1698.47 1095.26 1703.07 1098.06C1707.67 1100.86 1713.07 1101.76 1718.37 1100.46C1723.67 1099.16 1728.07 1095.96 1730.87 1091.36C1733.67 1086.76 1734.57 1081.26 1733.27 1076.06C1731.07 1066.66 1722.47 1060.36 1713.17 1060.56Z" fill="#060633"/>
<path d="M1775.97 1090.16C1771.87 1090.26 1767.87 1089.16 1764.37 1086.96C1759.47 1083.96 1755.97 1079.26 1754.67 1073.66C1751.87 1062.06 1758.97 1050.46 1770.57 1047.66C1776.17 1046.26 1781.97 1047.26 1786.87 1050.26C1791.77 1053.26 1795.27 1057.96 1796.57 1063.56C1797.97 1069.16 1797.07 1074.96 1793.97 1079.86C1790.97 1084.76 1786.27 1088.26 1780.67 1089.56C1779.07 1089.96 1777.47 1090.16 1775.97 1090.16ZM1775.17 1048.36C1773.67 1048.36 1772.27 1048.56 1770.77 1048.96C1759.97 1051.56 1753.27 1062.56 1755.87 1073.36C1758.47 1084.26 1769.47 1090.86 1780.27 1088.26C1785.57 1086.96 1789.97 1083.76 1792.77 1079.16C1795.57 1074.56 1796.47 1069.06 1795.17 1063.86C1793.87 1058.56 1790.67 1054.16 1786.07 1051.36C1782.77 1049.26 1778.97 1048.26 1775.17 1048.36Z" fill="#060633"/>
<path d="M1666.87 1087.36L1666.77 1086.06L1692.67 1082.86L1692.87 1084.16L1666.87 1087.36Z" fill="#060633"/>
<path d="M1734.87 1079.06L1733.97 1078.06C1745.07 1067.76 1755.57 1073.46 1755.67 1073.56L1755.07 1074.76C1754.67 1074.46 1745.17 1069.46 1734.87 1079.06Z" fill="#060633"/>
<path d="M2823.87 1078.16C2824.37 1097.26 2847.37 1113.16 2841.07 1131.16C2839.67 1135.16 2836.87 1138.66 2835.77 1142.66C2833.27 1151.66 2840.07 1161.26 2848.77 1164.56C2857.47 1167.86 2867.37 1165.96 2875.97 1162.36C2884.57 1158.76 2892.37 1153.56 2900.87 1149.66C2919.87 1140.96 2941.27 1139.66 2961.77 1135.66C2982.57 1131.56 3003.27 1124.56 3024.47 1125.96C3048.87 1127.66 3070.87 1140.46 3093.67 1149.16C3116.97 1158.06 3141.77 1162.86 3166.67 1163.36C3179.67 1163.56 3193.17 1162.56 3204.67 1156.56C3227.67 1144.56 3236.57 1114.66 3227.37 1091.06C3222.07 1077.66 3211.67 1066.66 3199.07 1059.66C3187.87 1053.46 3173.67 1051.36 3165.17 1040.86C3153.37 1026.26 3160.57 1004.36 3155.97 986.155C3152.07 970.855 3139.17 958.255 3124.87 952.155C3111.57 946.455 3094.97 945.655 3084.97 933.955C3074.07 921.255 3077.67 903.555 3075.77 888.355C3072.97 866.455 3058.47 847.155 3039.77 835.455C3034.17 831.955 3028.17 829.055 3021.77 826.755C2979.77 811.355 2925.07 821.955 2910.37 869.955C2905.87 884.655 2906.17 901.155 2898.17 914.255C2889.47 928.555 2871.87 936.955 2866.97 952.955C2860.87 973.055 2878.07 994.655 2872.47 1014.86C2868.77 1028.06 2856.37 1036.66 2845.47 1044.96C2834.67 1053.36 2823.47 1064.36 2823.87 1078.16Z" fill="#060633"/>
<path d="M3052.47 2074.26C3052.47 2074.26 3051.07 2175.16 3040.47 2186.16C3034.37 2192.46 2914.17 2205.66 2910.77 2189.56C2907.37 2173.46 2998.97 2151.36 3005.77 2121.76C3012.57 2092.06 3009.17 2064.06 3009.17 2064.06L3052.47 2074.26Z" fill="#FFB9A4"/>
<path d="M2726.87 2048.26C2726.87 2048.26 2702.67 2101.46 2697.87 2111.16C2693.07 2120.86 2688.17 2154.76 2678.47 2155.96C2668.77 2157.16 2564.77 2168.06 2562.27 2151.16C2559.87 2134.26 2654.27 2106.36 2660.27 2093.06C2666.27 2079.76 2689.27 2024.06 2689.27 2024.06L2726.87 2048.26Z" fill="#FFB9A4"/>
<path d="M3078.67 1351.36C3078.67 1351.36 3146.47 1464.76 3152.57 1523.46C3158.67 1582.16 3115.07 1801.86 3115.57 1816.06C3116.07 1830.26 3121.67 1862.66 3115.87 1884.86C3109.97 1907.16 3073.57 1973.96 3078.67 1992.16C3083.77 2010.36 3069.57 2097.46 3069.57 2097.46H2990.57C2990.57 2097.46 3000.67 1994.16 2990.57 1949.66C2980.47 1905.16 2980.47 1832.26 2980.47 1801.86C2980.47 1771.46 2980.47 1575.06 2980.47 1575.06C2980.47 1575.06 2931.87 1668.16 2929.87 1680.36C2927.87 1692.46 2925.87 1702.66 2909.67 1745.16C2893.47 1787.66 2857.07 1822.06 2850.97 1840.36C2844.87 1858.56 2842.87 1876.76 2832.77 1895.06C2822.67 1913.26 2798.37 1921.36 2788.27 1965.96C2778.17 2010.46 2737.67 2073.26 2737.67 2073.26L2650.57 2042.86C2650.57 2042.86 2715.37 1874.76 2715.37 1868.76C2715.37 1862.66 2745.77 1830.26 2745.77 1771.56C2745.77 1712.86 2782.17 1633.86 2792.37 1619.66C2802.47 1605.46 2895.67 1353.36 2933.07 1336.16C2970.37 1318.96 3078.67 1351.36 3078.67 1351.36Z" fill="#3788F5"/>
<path d="M3036.67 1040.06C3077.67 1041.56 3141.47 1059.76 3177.87 1120.56C3214.27 1181.26 3231.07 1237.46 3231.07 1237.46L3142.97 1269.36L3133.87 1234.46C3133.87 1234.46 3111.07 1345.36 3088.27 1354.46C3065.47 1363.56 3050.27 1346.86 3036.67 1345.36C3022.97 1343.86 2978.97 1357.46 2942.47 1346.86C2906.07 1336.26 2904.47 1308.86 2899.97 1276.96C2895.37 1245.06 2889.37 1216.26 2889.37 1216.26L2875.67 1226.86L2805.27 1156.46C2805.27 1156.46 2887.87 1071.96 2933.37 1058.26C2978.97 1044.56 3036.67 1040.06 3036.67 1040.06Z" fill="#E31368"/>
<path d="M3213.27 1243.86C3213.27 1243.86 3219.27 1338.16 3213.27 1383.66C3207.27 1429.26 3158.67 1527.46 3158.67 1527.46L3129.27 1497.06C3129.27 1497.06 3177.97 1361.06 3153.17 1265.56L3213.27 1243.86Z" fill="#FFB9A4"/>
<path d="M2919.47 937.955C2919.47 937.955 2912.67 930.455 2908.77 934.455C2898.87 944.855 2912.77 954.555 2920.57 955.855L2919.47 937.955Z" fill="#EF9A9A"/>
<path d="M2974.37 825.555C3008.87 822.555 3040.77 846.355 3047.77 880.355C3050.07 891.555 3049.57 902.555 3046.77 912.755C3040.97 937.955 3036.07 958.255 3028.57 973.755C3020.87 989.355 3019.07 1007.26 3024.07 1023.86L3029.17 1040.66C2992.47 1066.56 2972.07 1049.36 2972.07 1049.36L2966.07 1009.66C2922.37 1011.06 2915.97 930.855 2912.47 907.455H2912.57C2912.37 906.555 2912.27 905.755 2912.07 904.855C2905.87 865.555 2934.17 829.055 2974.37 825.555Z" fill="#FFB9A4"/>
<path d="M2989.77 894.355C2999.37 901.555 3008.17 909.955 3016.87 918.355C3026.07 927.255 3035.57 936.655 3039.27 948.855C3049.07 938.755 3054.27 925.155 3058.37 911.655C3060.27 905.455 3061.97 899.055 3061.87 892.455C3061.77 883.255 3058.17 874.455 3054.67 865.855C3050.07 854.855 3045.17 843.355 3036.07 835.755C3030.07 830.655 3022.47 827.655 3014.97 825.455C2997.27 820.255 2978.07 819.355 2960.47 824.555C2942.77 829.855 2926.87 841.655 2918.27 857.955C2907.27 878.955 2909.57 904.155 2912.07 927.755C2912.97 917.655 2918.17 908.555 2923.17 899.755C2926.47 894.055 2929.87 888.255 2934.87 883.955C2943.37 876.655 2946.17 877.555 2960.97 863.855C2967.37 877.755 2977.77 885.255 2989.77 894.355Z" fill="#060633"/>
<path d="M3028.77 935.055C3029.57 932.655 3031.17 930.655 3033.37 929.455C3037.77 926.855 3045.77 923.455 3052.37 928.355C3062.07 935.455 3048.57 960.255 3030.17 951.755C3030.17 951.655 3024.67 947.655 3028.77 935.055Z" fill="#FFB9A4"/>
<path d="M2930.87 936.855C2930.07 933.655 2931.97 930.355 2935.27 929.555C2938.47 928.755 2941.77 930.655 2942.57 933.955C2943.37 937.155 2941.47 940.455 2938.17 941.255C2934.87 942.055 2931.67 940.055 2930.87 936.855Z" fill="#060633"/>
<path d="M2988.07 934.655C2987.27 931.455 2989.17 928.155 2992.47 927.355C2995.67 926.555 2998.97 928.455 2999.77 931.755C3000.57 934.955 2998.67 938.255 2995.37 939.055C2992.07 939.755 2988.87 937.855 2988.07 934.655Z" fill="#060633"/>
<path d="M2950.37 977.955C2950.37 977.955 2955.07 973.755 2958.27 974.255C2961.37 974.855 2963.47 978.355 2963.47 978.355C2963.47 978.355 2964.97 974.455 2968.67 974.055C2972.37 973.655 2983.17 975.455 2983.17 975.455C2983.17 975.455 2975.07 992.255 2963.67 990.555C2952.27 988.855 2950.67 978.355 2950.67 978.355L2950.37 977.955Z" fill="#EA6868"/>
<path d="M2961.47 983.455C2974.47 984.955 2986.07 974.355 2986.17 974.155C2986.47 973.855 2986.57 973.255 2986.17 972.955C2985.87 972.655 2985.27 972.555 2984.97 972.955C2984.17 973.655 2966.27 990.155 2950.37 976.755C2949.97 976.455 2949.47 976.455 2949.17 976.855C2948.87 977.255 2948.87 977.755 2949.27 978.055C2953.27 981.355 2957.37 982.955 2961.47 983.455Z" fill="#240D39"/>
<path d="M3006.37 923.055C3007.07 922.955 3007.67 922.455 3008.07 921.755C3008.77 920.555 3008.27 919.055 3007.07 918.355C3006.67 918.155 2997.97 913.655 2987.07 916.355C2985.77 916.655 2984.87 918.055 2985.27 919.355C2985.57 920.655 2987.07 921.455 2988.27 921.155C2997.37 918.855 3004.57 922.655 3004.67 922.655C3005.17 923.155 3005.77 923.255 3006.37 923.055Z" fill="#060633"/>
<path d="M2944.17 921.955C2944.87 921.655 2945.37 921.155 2945.57 920.355C2945.97 919.055 2945.27 917.655 2943.97 917.155C2943.57 917.055 2934.27 914.055 2923.97 918.755C2922.67 919.355 2922.17 920.855 2922.77 922.055C2923.37 923.355 2924.87 923.855 2926.07 923.255C2934.57 919.355 2942.37 921.755 2942.47 921.855C2942.97 922.255 2943.57 922.155 2944.17 921.955Z" fill="#060633"/>
<path d="M2964.67 961.355C2957.47 961.355 2954.37 956.455 2953.67 953.355C2953.57 952.855 2953.67 952.255 2953.87 951.855C2959.07 943.155 2956.67 931.955 2956.67 931.855C2956.47 930.755 2957.17 929.555 2958.27 929.355C2959.37 929.055 2960.57 929.855 2960.77 930.955C2960.87 931.455 2963.37 943.155 2957.97 953.155C2958.67 954.755 2960.87 958.155 2967.57 956.855C2968.77 956.655 2969.87 957.355 2970.07 958.455C2970.27 959.555 2969.57 960.755 2968.47 960.955C2967.07 961.255 2965.77 961.355 2964.67 961.355Z" fill="#EF9A9A"/>
<path d="M2889.37 1216.66C2889.07 1216.66 2888.87 1216.46 2888.87 1216.16C2886.07 1185.96 2909.47 1143.36 2909.67 1142.96C2909.77 1142.66 2910.17 1142.66 2910.37 1142.76C2910.67 1142.86 2910.67 1143.26 2910.57 1143.46C2910.37 1143.86 2887.17 1186.16 2889.87 1216.06C2889.87 1216.46 2889.67 1216.66 2889.37 1216.66Z" fill="#272035"/>
<path d="M3056.77 1236.76C3031.07 1236.76 3009.27 1221.96 3008.97 1221.66C3008.77 1221.46 3008.67 1221.16 3008.87 1220.96C3009.07 1220.76 3009.37 1220.66 3009.57 1220.86C3009.97 1221.16 3051.27 1249.26 3086.97 1227.46C3087.17 1227.26 3087.57 1227.36 3087.67 1227.66C3087.87 1227.96 3087.77 1228.26 3087.47 1228.36C3077.37 1234.46 3066.77 1236.76 3056.77 1236.76Z" fill="#272035"/>
<path d="M3048.87 2147.35C2987.37 2178.75 2966.77 2168.06 2959.97 2158.06C2934.77 2170.46 2908.97 2180.86 2910.77 2189.56C2914.17 2205.66 3034.47 2192.46 3040.47 2186.16C3044.37 2182.16 3047.07 2166.05 3048.87 2147.35Z" fill="#0B0755"/>
<path d="M2608.77 2120.46C2584.47 2131.26 2561.07 2142.56 2562.27 2151.16C2564.67 2168.06 2668.77 2157.26 2678.47 2155.96C2687.27 2154.86 2692.07 2126.86 2696.47 2114.46C2644.87 2143.36 2618.77 2128.96 2608.77 2120.46Z" fill="#0B0755"/>
<path d="M3137.07 1491.16C3137.07 1491.16 3109.47 1509.56 3101.07 1518.46C3092.57 1527.36 3077.77 1529.56 3080.97 1535.96C3084.17 1542.36 3105.87 1533.16 3105.87 1533.16C3105.87 1533.16 3098.67 1557.06 3095.37 1564.06C3092.07 1571.06 3089.27 1585.16 3094.27 1587.96C3099.17 1590.76 3112.77 1555.96 3112.77 1555.96C3112.77 1555.96 3104.17 1586.36 3108.17 1589.96C3112.17 1593.56 3128.77 1556.46 3128.77 1556.46C3128.77 1556.46 3118.07 1588.46 3119.37 1591.66C3120.77 1594.86 3124.97 1593.26 3131.47 1582.86C3137.97 1572.46 3141.97 1560.16 3141.97 1560.16C3141.97 1560.16 3136.17 1583.26 3136.37 1586.26C3136.67 1589.26 3139.17 1593.26 3147.27 1576.76C3155.37 1560.36 3166.97 1521.96 3164.97 1500.36L3137.07 1491.16Z" fill="#FFB9A4"/>
<path d="M2640.37 1131.06C2640.37 1131.06 2632.67 1098.86 2627.37 1087.76C2621.97 1076.76 2624.97 1062.06 2617.97 1062.86C2610.87 1063.66 2611.97 1087.16 2611.97 1087.16C2611.97 1087.16 2592.07 1072.16 2586.57 1066.56C2581.17 1061.06 2568.97 1053.56 2564.57 1057.26C2560.17 1060.96 2588.07 1085.76 2588.07 1085.76C2588.07 1085.76 2562.47 1067.16 2557.77 1069.66C2553.07 1072.16 2582.07 1100.56 2582.07 1100.56C2582.07 1100.56 2555.77 1079.36 2552.27 1079.56C2548.77 1079.66 2548.77 1084.16 2556.27 1093.96C2563.77 1103.76 2573.87 1111.76 2573.87 1111.76C2573.87 1111.76 2554.27 1098.26 2551.37 1097.46C2548.47 1096.66 2543.87 1097.66 2556.47 1110.96C2569.07 1124.26 2601.07 1148.46 2621.97 1154.16L2640.37 1131.06Z" fill="#FFB9A4"/>
<path d="M2861.37 1212.46C2861.37 1212.46 2794.77 1292.26 2740.47 1283.46C2686.17 1274.76 2612.37 1142.66 2612.37 1142.66L2638.67 1126.66C2638.67 1126.66 2720.47 1216.16 2749.07 1210.46C2777.67 1204.76 2817.97 1169.06 2817.97 1169.06L2861.37 1212.46Z" fill="#FFB9A4"/>
<path d="M2782.77 1558.86H928.374V1598.86H2782.77V1558.86Z" fill="#060633"/>
<path d="M2717.47 2189.06C2715.47 2189.06 2713.77 2187.46 2713.67 2185.46L2682.77 1579.06C2682.67 1576.96 2684.27 1575.16 2686.37 1575.06C2688.47 1574.96 2690.27 1576.56 2690.37 1578.66L2721.27 2185.06C2721.37 2187.16 2719.77 2188.96 2717.67 2189.06C2717.57 2189.06 2717.47 2189.06 2717.47 2189.06Z" fill="#060633"/>
<path d="M974.574 2189.06C976.574 2189.06 978.274 2187.46 978.374 2185.46L1009.27 1579.06C1009.37 1576.96 1007.77 1575.16 1005.67 1575.06C1003.57 1574.96 1001.77 1576.56 1001.67 1578.66L970.774 2185.06C970.674 2187.16 972.274 2188.96 974.374 2189.06C974.474 2189.06 974.574 2189.06 974.574 2189.06Z" fill="#060633"/>
<path d="M897.574 2154.86C896.774 2154.86 895.974 2154.76 895.274 2154.56C889.974 2153.26 886.774 2147.96 888.074 2142.66L925.874 1988.06C927.174 1982.76 932.474 1979.56 937.774 1980.86C943.074 1982.16 946.274 1987.46 944.974 1992.76L907.174 2147.36C906.074 2151.86 901.974 2154.86 897.574 2154.86Z" fill="#0B0755"/>
<path d="M684.674 2154.86C683.874 2154.86 683.074 2154.76 682.374 2154.56C677.074 2153.26 673.874 2147.96 675.174 2142.66L730.074 1918.26C731.374 1912.96 736.674 1909.76 741.974 1911.06C747.274 1912.36 750.474 1917.66 749.174 1922.96L694.274 2147.36C693.174 2151.86 689.074 2154.86 684.674 2154.86Z" fill="#0B0755"/>
<path d="M769.674 1345.26C1147.87 1345.26 1075.17 1734.16 1194.37 1727.46C1313.57 1720.76 1368.87 2001.66 935.474 2001.66C501.974 2001.66 421.674 1345.26 769.674 1345.26Z" fill="#E31368"/>
<path d="M1304.67 2070.86C1304.67 2070.86 1303.67 2137.66 1304.27 2138.66C1304.77 2139.66 1299.37 2147.96 1299.37 2147.96L1278.27 2151.76L1259.07 2142.96C1259.07 2142.96 1260.77 2080.86 1258.77 2071.06C1256.67 2061.16 1304.67 2070.86 1304.67 2070.86Z" fill="#E3A88B"/>
<path d="M1258.97 2142.96C1258.97 2142.96 1283.27 2151.46 1304.07 2137.36C1304.07 2137.36 1384.97 2167.66 1382.47 2190.76C1382.47 2190.76 1385.87 2197.66 1350.87 2196.16C1315.77 2194.66 1261.37 2193.16 1259.87 2192.26C1258.47 2191.46 1251.57 2195.16 1258.97 2142.96Z" fill="#0B0755"/>
<path d="M1100.47 2070.86C1100.47 2070.86 1099.47 2137.66 1100.07 2138.66C1100.57 2139.66 1095.17 2147.96 1095.17 2147.96L1074.07 2151.76L1054.87 2142.96C1054.87 2142.96 1056.57 2080.86 1054.57 2071.06C1052.57 2061.16 1100.47 2070.86 1100.47 2070.86Z" fill="#E3A88B"/>
<path d="M1054.87 2142.96C1054.87 2142.96 1079.17 2151.46 1099.97 2137.36C1099.97 2137.36 1180.87 2167.66 1178.37 2190.76C1178.37 2190.76 1181.77 2197.66 1146.77 2196.16C1111.67 2194.66 1057.27 2193.16 1055.77 2192.26C1054.27 2191.46 1047.47 2195.16 1054.87 2142.96Z" fill="#0B0755"/>
<path d="M905.874 1290.56C905.874 1290.56 912.174 1282.86 916.174 1286.66C926.374 1296.36 914.274 1306.26 906.674 1308.06L905.874 1290.56Z" fill="#CB877D"/>
<path d="M911.374 1260.26C911.474 1259.36 911.574 1258.56 911.674 1257.66C915.474 1218.86 885.774 1184.56 846.174 1183.26C813.174 1182.16 783.774 1205.66 777.574 1238.06C775.274 1250.06 776.274 1261.86 779.774 1272.46C784.474 1288.86 788.674 1302.86 793.374 1314.66C801.174 1334.16 802.174 1355.76 796.674 1376.06L793.074 1389.46C832.374 1415.56 852.574 1399.46 852.574 1399.46L856.274 1369.76C856.774 1365.86 860.174 1363.06 864.074 1363.16C864.074 1363.16 864.074 1363.16 864.174 1363.16C915.874 1364.96 909.074 1283.46 911.374 1260.26Z" fill="#E3A88B"/>
<path d="M868.674 1338.26C855.474 1340.36 843.174 1330.06 843.074 1329.96C842.674 1329.66 842.674 1329.06 842.974 1328.76C843.274 1328.36 843.874 1328.36 844.174 1328.66C844.974 1329.36 864.074 1345.36 879.674 1330.96C880.074 1330.66 880.574 1330.66 880.874 1330.96C881.174 1331.36 881.174 1331.86 880.874 1332.16C876.874 1335.76 872.774 1337.56 868.674 1338.26Z" fill="#050521"/>
<path d="M838.374 1288.86C838.674 1285.36 836.174 1282.26 832.674 1281.96C829.174 1281.66 826.074 1284.16 825.774 1287.66C825.474 1291.16 827.974 1294.26 831.474 1294.56C834.874 1294.86 837.974 1292.36 838.374 1288.86Z" fill="#01011C"/>
<path d="M895.274 1283.16C895.574 1279.66 893.074 1276.56 889.574 1276.26C886.074 1275.96 882.974 1278.46 882.674 1281.96C882.374 1285.46 884.874 1288.56 888.374 1288.86C891.874 1289.16 894.874 1286.66 895.274 1283.16Z" fill="#01011C"/>
<path d="M816.774 1276.86C816.174 1276.76 815.474 1276.56 814.974 1276.16C813.374 1274.96 812.974 1272.66 814.174 1270.96C817.874 1266.06 828.274 1258.86 841.674 1267.26C843.374 1268.36 843.974 1270.66 842.874 1272.36C841.774 1274.06 839.474 1274.56 837.774 1273.56C826.774 1266.66 820.374 1275.06 820.174 1275.36C819.274 1276.46 818.074 1276.96 816.774 1276.86Z" fill="#312C27"/>
<path d="M876.674 1272.86C876.074 1272.76 875.374 1272.56 874.874 1272.16C873.274 1270.96 872.874 1268.66 874.074 1266.96C877.774 1262.06 888.174 1254.86 901.574 1263.26C903.274 1264.36 903.874 1266.66 902.774 1268.36C901.674 1270.06 899.374 1270.56 897.674 1269.56C886.674 1262.66 880.274 1271.06 880.074 1271.36C879.174 1272.46 877.874 1272.96 876.674 1272.86Z" fill="#312C27"/>
<path d="M775.274 1257.96L785.874 1297.86L798.174 1296.66L795.474 1250.86L775.274 1257.96Z" fill="#3A3734"/>
<path d="M798.474 1293.46C797.574 1291.16 795.874 1289.36 793.674 1288.16C789.174 1285.86 781.174 1282.96 774.974 1288.06C765.874 1295.56 780.374 1319.16 797.974 1309.86C797.974 1309.86 803.174 1305.66 798.474 1293.46Z" fill="#E3A88B"/>
<path d="M868.374 1314.76C862.074 1317.16 856.974 1313.36 856.974 1313.26C856.474 1312.86 856.374 1312.16 856.774 1311.76C857.174 1311.26 857.874 1311.16 858.274 1311.56C858.474 1311.76 864.174 1315.86 870.674 1310.96C871.774 1310.16 872.274 1309.46 872.374 1308.96C872.474 1308.26 871.674 1307.16 870.574 1305.66C867.974 1302.26 863.774 1296.66 863.374 1284.86C863.374 1284.26 863.874 1283.76 864.474 1283.76C865.074 1283.76 865.574 1284.26 865.574 1284.86C865.874 1295.96 869.774 1301.06 872.274 1304.36C873.674 1306.16 874.774 1307.56 874.474 1309.26C874.274 1310.46 873.474 1311.46 871.874 1312.66C870.774 1313.76 869.574 1314.36 868.374 1314.76Z" fill="#CB877D"/>
<path d="M903.574 1235.36C903.574 1235.36 912.074 1243.46 910.474 1284.06C910.474 1284.06 918.074 1239.46 913.574 1233.96C909.074 1228.56 903.574 1235.36 903.574 1235.36Z" fill="#3A3734"/>
<path d="M775.274 1258.06C775.374 1258.26 784.574 1256.36 788.974 1253.96C793.374 1251.56 795.474 1250.96 795.474 1250.96C795.674 1240.76 796.074 1231.86 813.574 1226.36C827.674 1221.96 830.974 1227.16 846.974 1227.76C859.374 1228.26 855.174 1229.06 874.574 1224.16C881.374 1222.46 891.374 1222.96 896.274 1227.66C902.574 1233.56 900.874 1231.36 903.474 1235.36C905.074 1237.76 909.874 1237.76 911.774 1236.36C914.474 1234.36 915.074 1235.06 914.074 1231.76C908.074 1211.26 890.274 1193.66 870.474 1185.56C850.774 1177.46 827.374 1178.96 808.774 1189.36C797.274 1195.86 787.674 1205.66 781.274 1217.26C778.074 1223.06 775.674 1229.26 774.174 1235.66C773.074 1240.56 774.074 1255.16 775.274 1258.06Z" fill="#312C27"/>
<path d="M795.574 1245.66C795.974 1245.66 796.574 1240.26 799.274 1236.16C804.974 1227.56 816.974 1224.36 827.274 1225.26C837.574 1226.16 847.774 1229.26 858.174 1228.36C864.674 1227.76 870.874 1225.46 877.374 1224.46C883.774 1223.36 890.974 1223.66 896.174 1227.56C900.274 1230.56 903.574 1236.16 908.674 1236.96C912.874 1237.56 914.974 1235.26 917.174 1231.66C919.274 1228.06 918.374 1220.66 915.774 1216.76C914.674 1220.66 914.574 1220.46 911.974 1224.26C912.874 1216.56 912.974 1208.86 908.474 1201.26C906.274 1206.66 906.474 1207.96 905.074 1212.76C906.074 1204.86 901.274 1199.06 896.274 1192.86C894.774 1199.46 895.874 1195.46 895.174 1200.36C894.274 1195.46 890.574 1193.96 889.274 1188.96C888.574 1191.26 887.574 1193.46 886.274 1192.96C884.874 1192.46 881.274 1187.46 880.974 1185.36C880.874 1184.86 881.274 1185.86 879.474 1189.66C878.774 1191.06 874.674 1184.86 874.574 1184.76C874.474 1184.66 874.874 1185.26 873.774 1187.06C873.574 1187.46 872.374 1184.76 872.274 1184.86C872.174 1185.26 871.774 1187.96 869.674 1189.96C861.774 1197.56 862.174 1198.96 823.874 1192.86C813.074 1191.16 803.874 1192.96 795.374 1199.76C784.174 1208.76 774.574 1228.46 773.874 1239.96C773.774 1239.96 777.674 1244.66 795.574 1245.66Z" fill="#312C27"/>
<path d="M1219.67 1738.76C1219.67 1738.76 1297.97 1745.06 1323.07 1844.86C1337.67 1902.86 1331.97 2091.56 1331.97 2091.56L1230.47 2107.46C1230.47 2107.46 1239.57 1896.56 1160.97 1831.56C1160.97 1831.56 1176.87 1874.36 1119.27 2118.06H1043.97L1018.87 1868.46C1018.87 1868.46 841.674 1874.36 788.474 1830.06C735.274 1785.76 729.974 1732.76 729.974 1732.76L980.474 1694.66L1219.67 1738.76Z" fill="#0E8BAD"/>
<path d="M769.574 1399.76C769.574 1399.76 774.474 1361.86 782.374 1363.86C790.274 1365.86 860.174 1378.56 867.074 1377.16C873.974 1375.76 867.074 1409.16 867.074 1409.16C867.074 1409.16 945.774 1416.36 965.474 1449.76C985.174 1483.26 1030.97 1610.36 1047.67 1621.26C1064.37 1632.06 1097.47 1662.26 1097.47 1662.26L961.274 1738.86L832.274 1732.86C832.274 1732.86 738.974 1788.76 666.074 1745.26C593.174 1701.76 605.974 1473.26 674.974 1432.86C743.974 1392.36 769.574 1399.76 769.574 1399.76Z" fill="#222638"/>
<path d="M998.874 1703.86C998.774 1703.86 998.574 1703.86 998.474 1703.76C959.174 1686.56 938.174 1517.06 937.274 1509.86C937.174 1509.36 937.574 1508.86 938.174 1508.76C938.774 1508.66 939.174 1509.06 939.274 1509.66C939.474 1511.46 961.074 1685.36 999.274 1702.06C999.774 1702.26 999.974 1702.86 999.774 1703.36C999.574 1703.66 999.274 1703.86 998.874 1703.86Z" fill="black"/>
<path d="M832.374 1733.66C831.974 1733.66 831.674 1733.46 831.474 1733.06C831.274 1732.56 831.474 1731.96 831.974 1731.76L860.374 1719.36L856.374 1669.86C847.874 1668.16 767.974 1652.66 729.774 1648.16C729.274 1648.06 728.874 1647.66 728.874 1647.16C728.774 1643.36 727.474 1553.46 733.374 1540.06C733.574 1539.56 734.174 1539.36 734.674 1539.56C735.174 1539.76 735.374 1540.36 735.174 1540.86C729.674 1553.16 730.674 1636.76 730.774 1646.26C771.274 1651.06 856.474 1667.86 857.374 1668.06C857.774 1668.16 858.174 1668.46 858.174 1668.96L862.274 1719.96C862.274 1720.36 862.074 1720.76 861.674 1720.96L832.574 1733.66C832.674 1733.66 832.474 1733.66 832.374 1733.66Z" fill="black"/>
<path d="M1160.87 1832.46C1160.37 1832.46 1159.97 1832.16 1159.87 1831.66C1159.67 1830.76 1141.77 1744.16 999.974 1733.86C999.474 1733.86 998.974 1733.36 999.074 1732.76C999.074 1732.26 999.574 1731.76 1000.17 1731.86C1075.07 1737.26 1114.97 1763.96 1135.37 1785.36C1157.47 1808.66 1161.87 1831.06 1161.97 1831.26C1162.07 1831.76 1161.67 1832.26 1161.17 1832.46C1160.97 1832.46 1160.97 1832.46 1160.87 1832.46Z" fill="#0B0755"/>
<path d="M884.074 1676.06C884.074 1676.06 886.074 1676.16 889.274 1676.26C905.474 1676.76 953.774 1678.46 959.374 1680.36C966.174 1682.76 945.774 1724.96 945.774 1724.96C945.774 1724.96 887.674 1728.16 868.974 1715.66C850.374 1703.16 884.074 1676.06 884.074 1676.06Z" fill="#E3A88B"/>
<path d="M938.274 1725.16C938.274 1725.16 970.674 1739.86 973.574 1736.66C976.474 1733.46 948.174 1717.06 948.174 1717.06L938.274 1725.16Z" fill="#E3A88B"/>
<path d="M947.074 1714.76C947.074 1714.76 995.074 1734.46 998.674 1727.86C1002.27 1721.26 949.174 1704.06 949.174 1704.06L947.074 1714.76Z" fill="#E3A88B"/>
<path d="M953.474 1703.16C953.474 1703.16 1002.97 1718.66 1006.07 1711.76C1009.07 1704.86 954.674 1692.36 954.674 1692.36L953.474 1703.16Z" fill="#E3A88B"/>
<path d="M955.974 1690.66C955.974 1690.66 1002.27 1705.76 1005.17 1698.86C1008.07 1691.96 957.174 1679.86 957.174 1679.86L955.974 1690.66Z" fill="#E3A88B"/>
<path d="M895.174 1677.36L858.674 1672.86L861.974 1714.06L880.774 1718.26L895.174 1677.36Z" fill="#E3A88B"/>
<path d="M1308.57 1549.66L1041.37 1549.36L957.274 1744.66L1224.47 1745.06L1308.57 1549.66Z" fill="#050521"/>
<path d="M1009.78 1732.88L830.883 1732.63L830.867 1744.43L1009.77 1744.68L1009.78 1732.88Z" fill="#050521"/>
<path d="M1147.67 1644.36C1147.67 1637.86 1152.87 1632.56 1159.37 1632.56C1165.87 1632.56 1171.17 1637.76 1171.17 1644.26C1171.17 1650.76 1165.97 1656.06 1159.47 1656.06C1152.97 1656.06 1147.67 1650.86 1147.67 1644.36Z" fill="white"/>
<path d="M2337.17 1388.26L2572.37 1387.96L2646.37 1559.96L2411.17 1560.26L2337.17 1388.26Z" fill="#0B0755"/>
<path d="M2600.11 1560L2757.61 1559.78L2757.6 1549.38L2600.1 1549.6L2600.11 1560Z" fill="#0B0755"/>
<path d="M2478.87 1471.56C2478.87 1465.86 2474.27 1461.16 2468.57 1461.16C2462.87 1461.16 2458.17 1465.76 2458.17 1471.46C2458.17 1477.16 2462.77 1481.86 2468.47 1481.86C2474.17 1481.96 2478.77 1477.26 2478.87 1471.56Z" fill="white"/>
<path d="M2210.17 1388.26L1974.97 1387.96L1900.97 1559.96L2136.17 1560.26L2210.17 1388.26Z" fill="#0B0755"/>
<path d="M1947.28 1549.57L1789.78 1549.35L1789.77 1559.75L1947.27 1559.97L1947.28 1549.57Z" fill="#0B0755"/>
<path d="M2068.47 1471.56C2068.47 1465.86 2073.07 1461.16 2078.77 1461.16C2084.47 1461.16 2089.17 1465.76 2089.17 1471.46C2089.17 1477.16 2084.57 1481.86 2078.87 1481.86C2073.17 1481.96 2068.57 1477.26 2068.47 1471.56Z" fill="white"/>
</svg>
